PathFileType	4	(X/Y/Z)	19_2_50_p0_0-268.trc
DataRate	CameraRate	NumFrames	NumMarkers	Units	OrigDataRate	OrigDataStartFrame	OrigNumFrames
59.0	59.0	6	27	m	59.0	235	269
Frame#	Time	RHip			RKnee			RAnkle			RBigToe			RSmallToe			RHeel			LHip			LKnee			LAnkle			LBigToe			LSmallToe			LHeel			Neck			Head			Nose			RShoulder			RElbow			RWrist			RThumb			RIndex			RPinky			LShoulder			LElbow			LWrist			LThumb			LIndex			LPinky			
		X1	Y1	Z1	X2	Y2	Z2	X3	Y3	Z3	X4	Y4	Z4	X5	Y5	Z5	X6	Y6	Z6	X7	Y7	Z7	X8	Y8	Z8	X9	Y9	Z9	X10	Y10	Z10	X11	Y11	Z11	X12	Y12	Z12	X13	Y13	Z13	X14	Y14	Z14	X15	Y15	Z15	X16	Y16	Z16	X17	Y17	Z17	X18	Y18	Z18	X19	Y19	Z19	X20	Y20	Z20	X21	Y21	Z21	X22	Y22	Z22	X23	Y23	Z23	X24	Y24	Z24	X25	Y25	Z25	X26	Y26	Z26	X27	Y27	Z27	
235	3.983050847457627	0.31832185912067146	0.5208749191230085	0.9045336892820679	0.30298879259833794	0.5502853503201217	1.3203688403263985	0.28135639556780273	0.5772437938298574	1.7277698483949944	0.2772571180030354	0.3864670971587802	1.73657856009455	0.3480290209139411	0.4083531707328668	1.7325722140636615	0.24805625142937032	0.6715678926540241	1.8115461126672314	0.11442655659655936	0.49580755797110504	0.9069884303485294	0.1112853347941121	0.5294675734118303	1.3063863540166065	0.0864894640704775	0.55061411208887	1.7192518198742583	0.10897747602941722	0.33048047617365295	1.7052585415881154	0.04826081238142207	0.3930795094906946	1.7329663911186908	0.1056399874802574	0.6058162772204421	1.7893428735187817	0.22342956276911832	0.5245685002937946	0.2888978449256094	0.24727156911241185	0.5513417641136366	0.04235307261228298	0.24281492492773746	0.43056756864003703	0.15750705494771267	0.38548889365062333	0.5448036399338843	0.4073379691970165	0.40766875121180773	0.4663237259890637	0.6570673572761293	0.27019152782095135	0.35991573359740753	0.8229540260907282	0.18712460533794067	0.35697545806116027	0.9083052193810565	0.1873081086090638	0.35903814632228864	0.9390124046848309	0.18473016989609645	0.3678990809815663	0.9412393579329045	0.06509727635275872	0.5428130921689727	0.39088475063354583	0.03959329835298048	0.4545197053638262	0.6223520552206453	0.16474607265205585	0.3235759975208141	0.7865878304663882	0.25005963510377494	0.29386138938119133	0.8566422474024623	0.2509704334224581	0.2920633993027159	0.8724692337926087	0.1962920310640315	0.34521972199272577	0.9084946975615756
236	4.0	0.3186986828862047	0.519696157437798	0.9077676670342133	0.29847317792575073	0.5454003437213105	1.3175733461454404	0.2812617104821998	0.5772730381858606	1.727829761861827	0.2773018258752727	0.3866384245935685	1.7364024998564414	0.34893457306555514	0.4101345261642069	1.7375653154948316	0.2479028541228404	0.6710589895389152	1.8111973842098554	0.10835757303751511	0.5085947256952361	0.9119658365089381	0.11737956173271141	0.5152090257003135	1.2989827817439927	0.08649795066780978	0.5505000343441704	1.7193259415364905	0.10884214442353943	0.33049385393242425	1.70525051049665	0.0481772090973262	0.39297886401132287	1.7328677701051989	0.1063879989574916	0.6076860106264982	1.795028949629527	0.22358436597090908	0.52411084669329	0.2921662281335298	0.24352513552418645	0.5492420627211372	0.045744536029210574	0.24277429290688907	0.43056536876244966	0.15752812669206057	0.38547930127524155	0.5449106707947513	0.4074579846714662	0.4075689683557799	0.4667617400939013	0.660584984104494	0.27270609169518395	0.37084430821343134	0.82672552998881	0.1866872892166492	0.3564740875576983	0.9033972969820304	0.187250889028569	0.35884799650759835	0.9385775560163109	0.18465899409549563	0.3673728059477026	0.9407762223249316	0.06505611711514225	0.54288083722101	0.3909615357965374	0.03582646291690068	0.4515730174287459	0.6255216911560734	0.16466021124101216	0.3235128969099543	0.7865506660557897	0.24957756965783118	0.29347808655812	0.8527653197219417	0.2461867122815101	0.30360318905706973	0.8766399901069848	0.1959116577881214	0.34440853635438784	0.9045525842374352
237	4.016949152542373	0.32401453498477806	0.5064158211642485	0.9026044577591319	0.29846449093540556	0.545519581862784	1.317735284294345	0.2813293452746674	0.5773129900152932	1.7277910825537888	0.27727952412246043	0.3863896403663408	1.7368777655598349	0.34889048819533464	0.40968048593721407	1.7376964709646192	0.2481119762042614	0.6717071556744388	1.8116580585085467	0.10827084488135155	0.5088954574281906	0.9123810254997992	0.11739007227863374	0.5153195578627168	1.2990494330848175	0.08653819632441825	0.5506293865443891	1.7193643676821382	0.10883045376214323	0.33065347228819864	1.7053547258081294	0.048211926848220156	0.39311632181852457	1.7329629569573335	0.10849958780814435	0.6213470276793167	1.8037150730761529	0.22360323225242393	0.5241123177556103	0.29217927975335845	0.2434978888925784	0.5492549401740675	0.045695184790994534	0.24272937699831554	0.43050573308337375	0.15751090238198578	0.38979987262016846	0.5319067449026057	0.40483572971797416	0.4103717194355435	0.47827002856691886	0.6635642009750125	0.27286066301657735	0.371851989297593	0.8271857570831719	0.18646977884084398	0.3567664187912463	0.9034497065772287	0.1821071309533265	0.3698434549179303	0.9352277019457701	0.1883425996014185	0.3711994436704082	0.9376136875391128	0.06828581988846372	0.5460312433219577	0.3879955565323072	0.039564013667230225	0.45474787001528455	0.6224051551362353	0.16465206150973494	0.3235564878676198	0.7864786071665941	0.2447468453070146	0.30308563975584446	0.8598025505738965	0.24547089859140364	0.3019679937343475	0.8719051772401626	0.19557366703191964	0.34359532286894207	0.9000174691569544
238	4.033898305084746	0.3236117360885883	0.5059581546628564	0.9066267381645615	0.2977733112937102	0.5449728438434516	1.322262727752279	0.2813142974193492	0.5772047216757222	1.7277565901932244	0.27727376116418306	0.386556432938037	1.7368426042511964	0.3484342529240824	0.4114015472188571	1.7338658794483148	0.24791587704018844	0.6716623781027857	1.8116419290777213	0.10778695303721225	0.5085721868166514	0.9162570429391588	0.11121168363366209	0.5292506140097379	1.3064580081422394	0.0865176013440809	0.5505673619171427	1.719415152850158	0.110759145644508	0.3440669953877444	1.7185942694468193	0.0481810425968671	0.39320972916939756	1.73298263539804	0.10855272852797077	0.6217735524271681	1.8040335290601528	0.22359305836405519	0.5241995923624145	0.2922713351959468	0.2434734707561346	0.5491419707326324	0.045766974209492176	0.2427658680960328	0.4299325202511739	0.1603260356643632	0.38986790412838584	0.5318097172753774	0.40489061972396195	0.41049758157586314	0.47880210206906126	0.663763258648398	0.2727712604373875	0.37229954902674256	0.8273642627944034	0.18644055179018312	0.3570319445872424	0.9034293377398828	0.18215713190208915	0.36994499714300494	0.9352702208191892	0.18911901700175346	0.37170143972474334	0.9344548173398214	0.0649486739510693	0.5431034760739785	0.39104328283036455	0.03775086012484675	0.46291504151395624	0.6284362610512548	0.16482068759957538	0.323802870453423	0.7866199078089772	0.24490198319470852	0.30336967789194275	0.8602129918813163	0.24564774134288284	0.30233556805203726	0.872222627998926	0.1954119518156795	0.3439651459728159	0.9000597609137615
239	4.0508474576271185	0.32271923405511005	0.5070221618431509	0.9073007090138825	0.2985795824024353	0.5342938381506432	1.3171221324398508	0.28126321197332055	0.5771605772718351	1.7276444743879669	0.2800924470962664	0.398629767717688	1.7450362787344444	0.350250314662746	0.42217818417866476	1.7367813170557074	0.24794145115336405	0.6718113757173799	1.8116513528906533	0.11325237334183413	0.49525365486755624	0.9146200621578142	0.11741391409272259	0.5155097029794985	1.2991586743699488	0.08648554232139972	0.5505317846797207	1.7193164840739592	0.11079146005981014	0.34409014601366317	1.7186349119005775	0.04822030376511632	0.3931483168811849	1.7329131591337086	0.10641792788893602	0.6076446711537321	1.7951668167735437	0.22363217453192374	0.5242156985445152	0.2923108788241824	0.2434737404271827	0.549156338501969	0.04576223781256853	0.2427698440860729	0.4299029097307165	0.1603671351425744	0.3898401342390848	0.5316402951842625	0.4049255791245501	0.4173637820030358	0.47733578805213805	0.6630166933983667	0.2732788199334594	0.37217617921866947	0.823772354876437	0.18616878542484447	0.35691232900377584	0.9035926228766886	0.18204588527511323	0.369770529533037	0.9348784539366755	0.1892357808962335	0.3713296628665516	0.934117590503505	0.06501282533090749	0.5430644807302168	0.39108521799668094	0.039365886875377135	0.45437032537687716	0.626202718330736	0.16684177435666878	0.3345057348315581	0.7901823044450003	0.24119800077309356	0.3023788118458848	0.8602295189802953	0.2456383045419332	0.30291259240466645	0.8728994001298628	0.18992702534963568	0.35497977150527305	0.9086088039190626
240	4.067796610169491	0.3174590376818302	0.5201110598844488	0.9124209547421102	0.295067325059415	0.5335480960129552	1.3081178065417338	0.28389657178604266	0.5902403421251274	1.735270786879801	0.2831371017087173	0.41118578491917146	1.7533943225858202	0.3536798035702398	0.43289739345363676	1.7485490356605689	0.2490924939744042	0.6706076293457164	1.8056587129574253	0.1134915891517427	0.4947141622788072	0.9145413990961245	0.11329655417693657	0.5131410873875274	1.298398497728296	0.08583431610969534	0.5493672783778754	1.7133491783173431	0.11037437233601102	0.34310208041050194	1.7134351672918993	0.04948265832080877	0.3930767180589781	1.7289991005699334	0.10566353155691068	0.6057797004709898	1.7894545914340123	0.2236126021507418	0.5242527823653973	0.29232837724731187	0.24076760421645182	0.5376051073389448	0.04180865528456288	0.24283715033383743	0.4297876379458047	0.16108500206596912	0.3854628329685817	0.5447781995281376	0.4074220481118287	0.4100859290579468	0.4795304298435043	0.6599331204449967	0.27257715626774176	0.3720022643451836	0.827092917596777	0.18645150328606588	0.3583299268550031	0.9085916280070526	0.1779883272470641	0.369899030769528	0.9437315670887493	0.18398220260226236	0.3820122531234607	0.9466475872320262	0.06489820814366186	0.5431345127914874	0.3910410001681691	0.03965310138855038	0.45321151991952624	0.6295556389590222	0.16690609250954103	0.33471184550731425	0.7903797011533796	0.2527447353611509	0.30414080361099355	0.8638030637306663	0.24614230269535453	0.3044438624339324	0.877527682745248	0.1907031846112514	0.3564964370569955	0.9090933246098799
